<?xml version="1.0" encoding="UTF-8" standalone="no"?>
<svg
   width="100"
   height="100"
   version="1.1"
   id="svg2528"
   xml:space="preserve"
   xmlns="http://www.w3.org/2000/svg"
   xmlns:svg="http://www.w3.org/2000/svg"><defs
     id="defs2532" /><path
     style="fill:#ffffff"
     d="M 93.5,24 94,25 82,32 81.5,31 Z"
     id="path8496" /><path
     style="fill:#ffffff"
     d="m 75.25,13.75 0.5,0.5 -6.5,8.5 -0.5,-0.5 z"
     id="path8494" /><path
     style="fill:#ffffff"
     d="m 49.5,5 1,-0.00538 V 19 h -1 z"
     id="path8492" /><path
     style="fill:#ffffff"
     d="m 28,12.5 1,-0.5 5,8 -1,0.5 z"
     id="path8490" /><path
     style="fill:#ffffff"
     d="M 5.5,23.5 6,23 l 14,9 -0.5,0.5 z"
     id="path8488" /><path
     style="fill:#ffffff"
     d="m 5,50.5 v -1 h 10 v 1 z"
     id="path8486" /><path
     style="fill:#ffffff"
     d="M 8.5,75.5 8,74.5 20,67.5 l 0.5,1 z"
     id="path8484" /><path
     style="fill:#ffffff"
     d="M 23.5,91.5 23,91 33.5,78.5 34,79 Z"
     id="path8482" /><path
     style="fill:#ffffff"
     d="m 50.5,94 h -1 v -9 h 1 z"
     id="path8480" /><path
     style="fill:#ffffff"
     d="M 74.5,90.5 74,91 67,80 67.5,79.5 Z"
     id="path8478" /><path
     style="fill:#ffffff"
     d="m 92,74 -0.5,1 -10,-6 0.5,-1 z"
     id="path8476" /><path
     style="fill:#ffffff"
     d="m 96,49.5 v 1 H 85 v -1 z"
     id="path6979" /></svg>
