<?xml version="1.0" encoding="UTF-8" standalone="no"?>
<svg width="57" height="88" xmlns="http://www.w3.org/2000/svg" xmlns:svg="http://www.w3.org/2000/svg">
  <rect
     x="1.5"
     y="1.5"
     width="54"
     height="85"
     fill="#ffffff"
   />
  <path
     d="m 2,0 h 53 l 2,2 v 84 l -2,2 H 2 L 0,86 V 2 Z M 2,2 V 86 H 55 V 2 Z"
   />
  <path
     style="fill:#002260;"
     d="M 7,5 5,7 v 74 l 2,2 h 43 l 2,-2 V 7 L 50,5 Z M 7,7 H 50 V 81 H 7 Z"
   />
  <path
     style="fill:#002260;"
     d="m 12,10 -2,2 v 64 l 2,2 h 33 l 2,-2 V 12 l -2,-2 z m 0,2 H 45 V 76 H 12 Z"
   />
  <path
     style="fill:#002260;"
     d="m 22.5,37 2,1 4,4 v -5 l 1,-2 1,2 v 5 l 4,-4 2,-1 -1,2 -4,4 h 5 l 2,1 -2,1 h -5 l 4,4 1,2 -2,-1 -4,-4 v 5 l -1,2 -1,-2 v -5 l -4,4 -2,1 1,-2 4,-4 h -5 l -2,-1 2,-1 h 5 l -4,-4 z"
   />
</svg>
